<svg width="33" height="32" viewBox="0 0 33 32" fill="none" xmlns="http://www.w3.org/2000/svg">
<path fill-rule="evenodd" clip-rule="evenodd" d="M16.5 0.118896C7.3875 0.118896 0 7.13942 0 15.7992C0 24.4591 7.3875 31.4796 16.5 31.4796C25.6125 31.4796 33 24.4591 33 15.7992C33 7.13942 25.6125 0.118896 16.5 0.118896ZM18 21.5012C18 21.8792 17.842 22.2418 17.5607 22.5092C17.2794 22.7765 16.8978 22.9267 16.5 22.9267C16.1022 22.9267 15.7206 22.7765 15.4393 22.5092C15.158 22.2418 15 21.8792 15 21.5012V17.2247H10.5C10.1022 17.2247 9.72064 17.0745 9.43934 16.8072C9.15804 16.5399 9 16.1773 9 15.7992C9 15.4212 9.15804 15.0586 9.43934 14.7913C9.72064 14.5239 10.1022 14.3738 10.5 14.3738H15V10.0973C15 9.71924 15.158 9.35666 15.4393 9.08933C15.7206 8.822 16.1022 8.67181 16.5 8.67181C16.8978 8.67181 17.2794 8.822 17.5607 9.08933C17.842 9.35666 18 9.71924 18 10.0973V14.3738H22.5C22.8978 14.3738 23.2794 14.5239 23.5607 14.7913C23.842 15.0586 24 15.4212 24 15.7992C24 16.1773 23.842 16.5399 23.5607 16.8072C23.2794 17.0745 22.8978 17.2247 22.5 17.2247H18V21.5012Z" fill="#000"/>
</svg>
