<svg width="26" height="26" viewBox="0 0 26 26" fill="none" xmlns="http://www.w3.org/2000/svg">
<path d="M4.83203 6.33325H22.4457C22.8026 6.33327 23.1556 6.41135 23.4818 6.56246C23.808 6.71357 24.1003 6.93436 24.3397 7.2106C24.5792 7.48684 24.7606 7.8124 24.8722 8.16629C24.9837 8.52018 25.023 8.89454 24.9875 9.26525L24.2211 17.2653C24.1581 17.9233 23.8631 18.5333 23.3934 18.9771C22.9237 19.4208 22.3128 19.6666 21.6794 19.6666H9.48133C8.89055 19.6668 8.31796 19.4533 7.86103 19.0624C7.40411 18.6715 7.0911 18.1273 6.97531 17.5226L4.83203 6.33325Z" stroke="#AEB0B2" stroke-width="2" stroke-linejoin="round"/>
<path d="M4.83184 6.33333L3.79724 2.00933C3.72805 1.721 3.56855 1.46508 3.34407 1.28221C3.1196 1.09934 2.84302 1.00001 2.55828 1H1" stroke="#AEB0B2" stroke-width="2" stroke-linecap="round" stroke-linejoin="round"/>
<path d="M8.66357 25H11.2181" stroke="#AEB0B2" stroke-width="2" stroke-linecap="round" stroke-linejoin="round"/>
<path d="M18.8818 25H21.4364" stroke="#AEB0B2" stroke-width="2" stroke-linecap="round" stroke-linejoin="round"/>
</svg>
