<svg width="22" height="14" viewBox="0 0 22 14" fill="none" xmlns="http://www.w3.org/2000/svg">
<path fill-rule="evenodd" clip-rule="evenodd" d="M11 5.75024C10.3096 5.75024 9.75 6.30989 9.75 7.00024C9.75 7.6906 10.3096 8.25024 11 8.25024C11.6904 8.25024 12.25 7.6906 12.25 7.00024C12.25 6.30989 11.6904 5.75024 11 5.75024ZM8.25 7.00024C8.25 5.48146 9.48122 4.25024 11 4.25024C12.5188 4.25024 13.75 5.48146 13.75 7.00024C13.75 8.51903 12.5188 9.75024 11 9.75024C9.48122 9.75024 8.25 8.51903 8.25 7.00024Z" fill="#000"/>
<path fill-rule="evenodd" clip-rule="evenodd" d="M0.550044 6.40004C0.881415 6.15152 1.35152 6.21867 1.60004 6.55004L3.08993 8.53656C4.04977 9.70129 5.25504 10.6397 6.61967 11.2848C7.98921 11.9322 9.48521 12.2679 11 12.2679C12.5149 12.2679 14.0109 11.9322 15.3804 11.2848C16.7451 10.6397 17.9503 9.70129 18.9102 8.53656L20.4 6.55004C20.6486 6.21867 21.1187 6.15152 21.45 6.40004C21.7814 6.64857 21.8486 7.11867 21.6 7.45004L20.1 9.45004C20.0934 9.45888 20.0866 9.46757 20.0796 9.4761C18.9774 10.818 17.5914 11.8988 16.0214 12.6409C14.4515 13.383 12.7366 13.7679 11 13.7679C9.26353 13.7679 7.5486 13.383 5.97864 12.6409C4.40868 11.8988 3.02273 10.818 1.9205 9.4761C1.91349 9.46757 1.90667 9.45888 1.90004 9.45004L0.400044 7.45004C0.151516 7.11867 0.218673 6.64857 0.550044 6.40004Z" fill="#000"/>
<path fill-rule="evenodd" clip-rule="evenodd" d="M11 1.73193C9.48521 1.73193 7.98921 2.0677 6.61967 2.71507C5.25504 3.36012 4.04977 4.29857 3.08993 5.4633L1.60004 7.44981C1.35152 7.78119 0.881415 7.84834 0.550044 7.59981C0.218673 7.35129 0.151516 6.88119 0.400044 6.54981L1.90004 4.54981C1.90667 4.54098 1.91349 4.53229 1.9205 4.52376C3.02273 3.18191 4.40868 2.10104 5.97864 1.35894C7.5486 0.616833 9.26353 0.231934 11 0.231934C12.7366 0.231934 14.4515 0.616833 16.0214 1.35894C17.5914 2.10104 18.9774 3.18191 20.0796 4.52376C20.0866 4.53229 20.0934 4.54098 20.1 4.54981L21.6 6.54981C21.8486 6.88119 21.7814 7.35129 21.45 7.59981C21.1187 7.84834 20.6486 7.78119 20.4 7.44981L18.9102 5.4633C17.9503 4.29857 16.7451 3.36012 15.3804 2.71507C14.0109 2.0677 12.5149 1.73193 11 1.73193Z" fill="#000"/>
</svg>
