<svg width="24" height="24" viewBox="0 0 24 24" fill="none" xmlns="http://www.w3.org/2000/svg">
<g clip-path="url(#clip0_4933_7722)">
<path d="M12.0002 1.08001C14.9168 1.08001 17.6594 2.21603 19.7218 4.27838C21.7841 6.34074 22.9202 9.08341 22.9202 12C22.9202 14.9166 21.7842 17.6592 19.7218 19.7215C17.6594 21.7839 14.9167 22.92 12.0002 22.92C9.08359 22.92 6.34096 21.7839 4.27856 19.7215C2.21621 17.6592 1.0802 14.9166 1.0802 12C1.0802 11.5842 1.41725 11.2472 1.83301 11.2472C2.24876 11.2472 2.58582 11.5842 2.58582 12C2.58582 17.191 6.80919 21.4144 12.0002 21.4144C17.1912 21.4144 21.4146 17.191 21.4146 12C21.4146 6.80897 17.1912 2.5856 12.0002 2.5856C10.4713 2.5856 8.98303 2.95216 7.64492 3.65167L8.32159 4.32833C8.53689 4.54364 8.60128 4.86744 8.4848 5.14873C8.4848 5.14873 8.4848 5.14873 8.4848 5.14874L8.37393 5.10283L12.0002 1.08001ZM12.0002 1.08001C10.0692 1.08001 8.19311 1.58448 6.53667 2.54346M12.0002 1.08001L6.53667 2.54346M6.53667 2.54346L5.29371 1.3005L6.53667 2.54346Z" fill="#AEB0B2" stroke="#AEB0B2" stroke-width="0.24"/>
<path d="M16.0878 11.6559H12.3439V7.91198C12.3439 7.45242 11.9713 7.07995 11.5118 7.07995C11.0523 7.07995 10.6798 7.45247 10.6798 7.91198V12.4879C10.6798 12.9474 11.0523 13.32 11.5118 13.32H16.0878C16.5473 13.32 16.9198 12.9474 16.9198 12.4879C16.9198 12.0284 16.5473 11.6559 16.0878 11.6559Z" fill="#AEB0B2" stroke="#AEB0B2" stroke-width="0.24"/>
</g>
<defs>
<clipPath id="clip0_4933_7722">
<rect width="24" height="24" fill="white"/>
</clipPath>
</defs>
</svg>
