<svg width="16" height="20" viewBox="0 0 16 20" fill="none" xmlns="http://www.w3.org/2000/svg">
<path fill-rule="evenodd" clip-rule="evenodd" d="M2.99951 9.75073C2.30916 9.75073 1.74951 10.3104 1.74951 11.0007V17.0007C1.74951 17.6911 2.30916 18.2507 2.99951 18.2507H12.9995C13.6899 18.2507 14.2495 17.6911 14.2495 17.0007V11.0007C14.2495 10.3104 13.6899 9.75073 12.9995 9.75073H2.99951ZM0.249512 11.0007C0.249512 9.48195 1.48073 8.25073 2.99951 8.25073H12.9995C14.5183 8.25073 15.7495 9.48195 15.7495 11.0007V17.0007C15.7495 18.5195 14.5183 19.7507 12.9995 19.7507H2.99951C1.48073 19.7507 0.249512 18.5195 0.249512 17.0007V11.0007Z" fill="#000"/>
<path d="M7.99951 15C8.5518 15 8.99951 14.5523 8.99951 14C8.99951 13.4477 8.5518 13 7.99951 13C7.44723 13 6.99951 13.4477 6.99951 14C6.99951 14.5523 7.44723 15 7.99951 15Z" fill="#000"/>
<path fill-rule="evenodd" clip-rule="evenodd" d="M7.99951 13.75C7.86144 13.75 7.74951 13.8619 7.74951 14C7.74951 14.1381 7.86144 14.25 7.99951 14.25C8.13758 14.25 8.24951 14.1381 8.24951 14C8.24951 13.8619 8.13758 13.75 7.99951 13.75ZM6.24951 14C6.24951 13.0335 7.03301 12.25 7.99951 12.25C8.96601 12.25 9.74951 13.0335 9.74951 14C9.74951 14.9665 8.96601 15.75 7.99951 15.75C7.03301 15.75 6.24951 14.9665 6.24951 14Z" fill="#000"/>
<path fill-rule="evenodd" clip-rule="evenodd" d="M7.99951 1.75C7.13756 1.75 6.31091 2.09241 5.70141 2.7019C5.09192 3.3114 4.74951 4.13805 4.74951 5V9C4.74951 9.41421 4.41373 9.75 3.99951 9.75C3.5853 9.75 3.24951 9.41421 3.24951 9V5C3.24951 3.74022 3.74996 2.53204 4.64075 1.64124C5.53155 0.750445 6.73973 0.25 7.99951 0.25C9.25929 0.25 10.4675 0.750445 11.3583 1.64124C12.2491 2.53204 12.7495 3.74022 12.7495 5V9C12.7495 9.41421 12.4137 9.75 11.9995 9.75C11.5853 9.75 11.2495 9.41421 11.2495 9V5C11.2495 4.13805 10.9071 3.3114 10.2976 2.7019C9.68812 2.09241 8.86147 1.75 7.99951 1.75Z" fill="#000"/>
</svg>
