<svg width="28" height="29" viewBox="0 0 28 29" fill="none" xmlns="http://www.w3.org/2000/svg">
<path d="M14.8059 13.5257H13.195C12.3368 13.5257 11.6407 12.8357 11.6407 11.9905C11.6407 11.1453 12.3369 10.4553 13.195 10.4553H16.4168C16.8916 10.4553 17.2787 10.0745 17.2787 9.60203C17.2787 9.12958 16.8916 8.74872 16.4168 8.74872H14.8624V7.21352C14.8624 6.74107 14.4753 6.36021 14.0005 6.36021C13.5256 6.36021 13.1385 6.74107 13.1385 7.21352V8.74919C11.3579 8.77914 9.91686 10.2204 9.91686 11.9905C9.91686 13.7793 11.3886 15.2323 13.1951 15.2323H14.806C15.6641 15.2323 16.3602 15.9223 16.3602 16.7675C16.3602 17.6127 15.6641 18.3027 14.806 18.3027H11.5843C11.1094 18.3027 10.7223 18.6835 10.7223 19.156C10.7223 19.6284 11.1094 20.0093 11.5843 20.0093H13.1385V21.5445C13.1385 22.017 13.5256 22.3979 14.0005 22.3979C14.4753 22.3979 14.8624 22.017 14.8624 21.5445V20.0088C16.643 19.9789 18.0841 18.5376 18.0841 16.7675C18.0841 14.9787 16.6124 13.5257 14.8059 13.5257Z" fill="#000" stroke="#000" stroke-width="0.22"/>
<path d="M23.1517 5.328C20.7071 2.91148 17.4565 1.58067 13.9998 1.58067C10.5432 1.58067 7.29256 2.91148 4.84794 5.328L4.92527 5.40623L4.84794 5.328C2.40332 7.74457 1.0565 10.9584 1.0565 14.3765C1.0565 17.7946 2.40332 21.0084 4.84794 23.425C7.29256 25.8415 10.5432 27.1723 13.9998 27.1723C17.4565 27.1723 20.7071 25.8415 23.1517 23.425C25.5964 21.0084 26.9432 17.7946 26.9432 14.3765C26.9432 10.9584 25.5964 7.74457 23.1517 5.328ZM13.9998 25.4657C7.81231 25.4657 2.78041 20.4898 2.78041 14.3765C2.78041 8.26317 7.81231 3.28729 13.9998 3.28729C20.1874 3.28729 25.2193 8.26317 25.2193 14.3765C25.2193 20.4898 20.1874 25.4657 13.9998 25.4657Z" fill="#000" stroke="#000" stroke-width="0.22"/>
</svg>
