<svg width="24" height="25" viewBox="0 0 24 25" fill="none" xmlns="http://www.w3.org/2000/svg">
<g clip-path="url(#clip0_4933_8021)">
<path d="M3 3.46826H6V6.43378H3V3.46826Z" fill="white"/>
<path d="M9 0.502686V9.39924H0V0.502686H9ZM7.5 1.98544H1.5V7.91648H7.5V1.98544ZM6 18.2958H3V21.2613H6V18.2958Z" fill="white"/>
<path d="M9 15.3303V24.2269H0V15.3303H9ZM1.5 16.8131V22.7441H7.5V16.8131H1.5ZM18 3.46826H21V6.43378H18V3.46826Z" fill="white"/>
<path d="M15 0.502686V9.39924H24V0.502686H15ZM22.5 1.98544V7.91648H16.5V1.98544H22.5ZM12 1.98544V0.502686H13.5V3.4682H12V6.43372H10.5V1.98544H12ZM12 9.39924V6.43372H13.5V9.39924H12ZM9 12.3648V10.882H10.5V9.39924H12V12.3648H13.5V10.882H21V12.3648H15V13.8475H10.5V12.3648H9ZM9 12.3648V13.8475H3V12.3648H1.5V13.8475H0V10.882H4.5V12.3648H9ZM24 13.8475H22.5V10.882H24V13.8475ZM22.5 13.8475H21V16.813H24V15.3303H22.5V13.8475ZM16.5 13.8475H19.5V15.3303H18V16.813H16.5V13.8475ZM19.5 18.2958V16.813H18V18.2958H16.5V19.7785H13.5V21.2613H18V18.2958H19.5ZM19.5 18.2958H24V19.7785H21V21.2613H19.5V18.2958ZM13.5 16.813V18.2958H15V15.3303H10.5V16.813H13.5Z" fill="white"/>
<path d="M10.5 18.2959H12V22.7442H18V24.2269H10.5V18.2959ZM24 21.2614V24.2269H19.5V22.7442H22.5V21.2614H24Z" fill="white"/>
</g>
<defs>
<clipPath id="clip0_4933_8021">
<rect width="24" height="23.7241" fill="white" transform="translate(0 0.502686)"/>
</clipPath>
</defs>
</svg>
