<svg width="24" height="24" viewBox="0 0 24 24" fill="none" xmlns="http://www.w3.org/2000/svg">
<g clip-path="url(#clip0_4933_7719)">
<path d="M6.72756 13.4915L10.2797 9.75068L1.46836 0.484657C0.528038 1.47776 0 2.82299 0 4.22543C0 5.62788 0.528038 6.9731 1.46836 7.96621L6.72756 13.4915ZM15.2377 11.0989C17.1581 12.0374 19.8567 11.3765 21.8525 9.27482C24.2499 6.75013 24.7143 3.12832 22.8692 1.18523C21.0366 -0.744644 17.5974 -0.268785 15.1875 2.25591C13.1917 4.35762 12.5642 7.19955 13.4553 9.22195L1.20477 22.123L2.97457 23.9868L11.6228 14.9058L20.2584 24L22.0282 22.1362L13.3926 13.042L15.2377 11.0989Z" fill="#1B5F1B"/>
</g>
<defs>
<clipPath id="clip0_4933_7719">
<rect width="24" height="24" fill="white"/>
</clipPath>
</defs>
</svg>
