<svg width="23" height="26" viewBox="0 0 23 26" fill="none" xmlns="http://www.w3.org/2000/svg">
<path d="M11.2655 13C14.427 13 16.99 10.3137 16.99 7C16.99 3.68629 14.427 1 11.2655 1C8.10395 1 5.54102 3.68629 5.54102 7C5.54102 10.3137 8.10395 13 11.2655 13Z" stroke="#AEB0B2" stroke-width="2"/>
<path d="M16.9901 15.3999H17.3931C18.2301 15.4002 19.0382 15.7207 19.6656 16.3014C20.293 16.8821 20.6965 17.683 20.8003 18.5535L21.248 22.3023C21.2882 22.64 21.2595 22.9828 21.1637 23.308C21.0679 23.6332 20.9072 23.9333 20.6923 24.1885C20.4773 24.4436 20.2131 24.6479 19.9171 24.7878C19.6211 24.9277 19.3001 25 18.9753 24.9999H3.55591C3.2312 25 2.91018 24.9277 2.61417 24.7878C2.31816 24.6479 2.05393 24.4436 1.839 24.1885C1.62407 23.9333 1.46337 23.6332 1.36757 23.308C1.27176 22.9828 1.24303 22.64 1.2833 22.3023L1.72981 18.5535C1.83364 17.6826 2.23747 16.8814 2.86535 16.3006C3.49323 15.7199 4.3019 15.3996 5.1393 15.3999H5.54116" stroke="#AEB0B2" stroke-width="2" stroke-linecap="round" stroke-linejoin="round"/>
</svg>
