<svg width="14" height="15" viewBox="0 0 14 15" fill="none" xmlns="http://www.w3.org/2000/svg">
<path d="M7.45355 0.891625C7.3036 0.880554 7.15329 0.875009 7.00293 0.875V0C7.1749 8.38491e-05 7.34681 0.00650487 7.5183 0.01925L7.45355 0.891625ZM9.20705 1.28537C8.92657 1.17714 8.6385 1.0897 8.34518 1.02375L8.5368 0.16975C8.87193 0.245 9.2018 0.34475 9.52205 0.469L9.20705 1.28537V1.28537ZM10.4058 1.90662C10.2807 1.82319 10.1526 1.74439 10.0217 1.67038L10.4531 0.909125C10.7522 1.07864 11.0385 1.26991 11.3097 1.48137L10.7716 2.17175C10.6529 2.0792 10.5309 1.99106 10.4058 1.9075V1.90662ZM12.0106 3.47288C11.8375 3.22698 11.6465 2.99418 11.4392 2.77638L12.0727 2.17263C12.3089 2.422 12.5277 2.68887 12.7263 2.96887L12.0106 3.47288V3.47288ZM12.6616 4.65588C12.6041 4.51715 12.5417 4.38056 12.4743 4.24638L13.2557 3.85262C13.4102 4.15982 13.5418 4.47802 13.6494 4.80463L12.8182 5.0785C12.7712 4.93576 12.7189 4.79479 12.6616 4.65588V4.65588ZM13.1253 6.8495C13.1182 6.5488 13.089 6.24903 13.0378 5.95262L13.8997 5.80387C13.9583 6.14162 13.9924 6.48462 14.0012 6.82762L13.1262 6.8495H13.1253ZM13.0107 8.19525C13.0396 8.0465 13.0632 7.89862 13.0816 7.749L13.9504 7.85663C13.9084 8.19801 13.8411 8.53581 13.7492 8.86725L12.9057 8.63362C12.9459 8.48925 12.9809 8.34313 13.0107 8.19525V8.19525ZM12.1777 10.2769C12.3387 10.0231 12.4804 9.75712 12.6029 9.48237L13.4027 9.83675C13.2627 10.1517 13.1008 10.4545 12.9171 10.745L12.1777 10.2769ZM11.3342 11.3312C11.4409 11.2245 11.5433 11.1142 11.6404 11.0005L12.3037 11.5719C12.1914 11.7021 12.0743 11.8282 11.9528 11.9499L11.3342 11.3312V11.3312Z" fill="#F58500"/>
<path d="M7.00273 0.875C5.9955 0.875073 5.00383 1.12354 4.11556 1.5984C3.22729 2.07325 2.46984 2.75984 1.91028 3.59734C1.35073 4.43485 1.00635 5.39742 0.907653 6.3998C0.808954 7.40219 0.958978 8.41344 1.34444 9.344C1.7299 10.2746 2.3389 11.0957 3.11749 11.7347C3.89609 12.3737 4.82025 12.8108 5.80813 13.0073C6.796 13.2038 7.81709 13.1537 8.78096 12.8613C9.74483 12.569 10.6217 12.0434 11.334 11.3312L11.9526 11.9499C11.1386 12.7643 10.1363 13.3654 9.03452 13.6999C7.93271 14.0344 6.76541 14.0919 5.63604 13.8674C4.50667 13.6429 3.45011 13.1434 2.55996 12.4129C1.66982 11.6825 0.973577 10.7438 0.532926 9.68003C0.0922752 8.61622 -0.0791787 7.46014 0.0337557 6.31424C0.14669 5.16833 0.540526 4.06796 1.18037 3.11064C1.82021 2.15332 2.6863 1.3686 3.70191 0.826003C4.71751 0.283408 5.85127 -0.000305141 7.00273 2.46276e-07V0.875Z" fill="#F58500"/>
<path d="M6.56543 2.625C6.68146 2.625 6.79274 2.67109 6.87479 2.75314C6.95684 2.83519 7.00293 2.94647 7.00293 3.0625V7.62125L9.84493 9.24525C9.94275 9.30426 10.0136 9.39919 10.0424 9.50975C10.0711 9.62031 10.0555 9.73774 9.9988 9.83692C9.94212 9.93611 9.84889 10.0092 9.73904 10.0406C9.62919 10.0719 9.51143 10.0591 9.41093 10.0048L6.34843 8.25475C6.28147 8.2165 6.22581 8.16123 6.18708 8.09454C6.14836 8.02785 6.12795 7.95212 6.12793 7.875V3.0625C6.12793 2.94647 6.17402 2.83519 6.25607 2.75314C6.33812 2.67109 6.4494 2.625 6.56543 2.625V2.625Z" fill="#F58500"/>
</svg>
